<?xml version="1.0" encoding="UTF-8"?>
<svg width="144px" height="92px" viewBox="0 0 144 92" version="1.1" xmlns="http://www.w3.org/2000/svg" xmlns:xlink="http://www.w3.org/1999/xlink">
    <title>DermaTotalLogoBlanco</title>
    <g id="Logo" stroke="none" stroke-width="1" fill="none" fill-rule="evenodd">
        <g transform="translate(2.829880, 0.197543)" stroke="#FFFFFF" stroke-width="3">
            <path d="M67.2227031,2.25396779 C71.1315604,7.19821821 84.6999328,25.6667908 84.6999328,43.8024574 C84.6999328,51.6593877 82.4980035,58.1419561 79.5702585,63.0914992 C75.436283,70.0802533 69.8294307,74.2162513 67.3223417,74.2162513 C64.8132769,74.2162513 59.5737322,71.44794 55.5302852,64.6045106 C52.7012457,59.8164345 50.4598109,53.0357603 49.9639232,43.7227007 C48.8838127,23.4375962 63.0466577,6.71946522 67.2227031,2.25396779 Z" id="Oval"></path>
            <path d="M89.5827291,80.5269756 C94.1007307,80.5269756 103.890209,73.3881265 103.890209,52.9536824 C103.890209,31.3040171 85.0126358,9.15122492 85.0126358,9.15122492 C85.0126358,9.15122492 79.3034954,17.840216 72.2286446,33.786598 C76.9714675,37.1344277 81.7965389,42.3125322 86.703859,49.3209116 C91.6111791,56.3292909 92.5708024,66.7313123 89.5827291,80.5269756 Z" id="Path" transform="translate(88.059427, 44.839100) rotate(35.000000) translate(-88.059427, -44.839100) "></path>
            <path d="M61.6156439,33.0853005 C55.3684193,18.824059 48.0589621,9.06967675 48.0589621,9.06967675 C48.0589621,9.06967675 28.1529913,34.9776996 29.2026478,52.8721342 C30.2523044,70.7665688 39.5237942,78.7092672 44.0417958,78.7092672 C40.273035,70.4076751 41.336977,60.5654748 47.2336218,49.1826663 C49.2724268,45.246983 54.0664342,39.8811943 61.6156439,33.0853005 Z" id="Path" transform="translate(45.389096, 43.889472) rotate(-35.000000) translate(-45.389096, -43.889472) "></path>
            <path d="M49.6276747,44.8539137 C30.0064144,35.7043698 0,42.8409393 0,42.8409393 L0.176403761,43.3266823 C1.53772091,46.9647475 12.76192,68.4648797 31.7294855,78.4422822 C46.6418179,86.286533 62.1814734,77.6660639 65.2455157,74.4906477 C60.4728881,70.6130092 57.3931244,67.661239 56.0062246,65.6353369 C53.5310375,62.0197284 50.159375,53.5928193 49.6276747,44.8539137 Z" id="Path"></path>
            <path d="M100.213677,93.0176269 C104.731678,93.0176269 116.602024,84.8617257 116.602024,64.4272816 C116.602024,42.7776163 99.9567867,23.9357934 99.9567867,23.9357934 C99.9567867,23.9357934 79.9217173,41.6279987 81.2209071,66.0275391 C87.2312203,69.476331 91.4461628,73.0183054 93.8657347,76.6534624 C96.243601,80.2259611 98.3595816,85.6806826 100.213677,93.0176269 Z" id="Path" transform="translate(98.881186, 58.476710) rotate(65.000000) translate(-98.881186, -58.476710) "></path>
        </g>
    </g>
</svg>